<mxGraphModel dx="0" dy="0" grid="1" gridSize="10" guides="1" tooltips="1" connect="1" arrows="1" fold="1" page="0" pageScale="1" background="none" math="0" shadow="0">
  <root>
    <mxCell id="0" />
    <mxCell id="1" parent="0" />
    <mxCell id="node1" parent="1" vertex="1" value="&lt;p style=&quot;margin:0px;margin-top:4px;text-align:center;&quot;&gt;&lt;i&gt;&amp;lt;&amp;lt;enumeration&amp;gt;&amp;gt;&lt;/i&gt;&lt;br/&gt;&lt;b&gt;Apodo&lt;/b&gt;&lt;/p&gt;&lt;hr size=&quot;1&quot;/&gt;&lt;p style=&quot;margin:0 0 0 4px;line-height:1.6;&quot;&gt;+ Apodo(): &lt;/p&gt;&lt;hr size=&quot;1&quot;/&gt;&lt;p style=&quot;margin:0 0 0 4px;line-height:1.6;&quot;&gt;+ Twinkle: &lt;br/&gt;+ Daddy: &lt;br/&gt;+ Mad: &lt;br/&gt;+ Mac: &lt;br/&gt;+ Gonzo: &lt;br/&gt;+ Crash: &lt;br/&gt;+ Lucky: &lt;br/&gt;+ Butterfly: &lt;br/&gt;+ Bones: &lt;br/&gt;+ Babe: &lt;/p&gt;&lt;hr size=&quot;1&quot;/&gt;&lt;p style=&quot;margin:0 0 0 4px;line-height:1.6;&quot;&gt;+ values(): Apodo[]&lt;br/&gt;+ valueOf(String): Apodo&lt;/p&gt;" style="verticalAlign=top;align=left;overflow=fill;fontSize=14;fontFamily=Helvetica;html=1;rounded=0;shadow=0;comic=0;labelBackgroundColor=none;strokeWidth=1;">
      <mxGeometry x="238" y="171" width="188" height="355" as="geometry" />
    </mxCell>
    <mxCell id="node3" parent="1" vertex="1" value="&lt;p style=&quot;margin:0px;margin-top:4px;text-align:center;&quot;&gt;&lt;b&gt;Juego&lt;/b&gt;&lt;/p&gt;&lt;hr size=&quot;1&quot;/&gt;&lt;p style=&quot;margin:0 0 0 4px;line-height:1.6;&quot;&gt;+ Juego(): &lt;/p&gt;&lt;hr size=&quot;1&quot;/&gt;&lt;p style=&quot;margin:0 0 0 4px;line-height:1.6;&quot;&gt;- Jugador2: List&amp;lt;Personaje&amp;gt;&lt;br/&gt;- Jugador1: List&amp;lt;Personaje&amp;gt;&lt;br/&gt;- log: List&amp;lt;String&amp;gt;&lt;br/&gt;~ nombresUtilizados: Set&amp;lt;String&amp;gt;&lt;br/&gt;~ continuarJugando: Boolean&lt;br/&gt;~ s: Scanner&lt;br/&gt;~ apodosUtilizados: Set&amp;lt;String&amp;gt;&lt;/p&gt;&lt;hr size=&quot;1&quot;/&gt;&lt;p style=&quot;margin:0 0 0 4px;line-height:1.6;&quot;&gt;+ ataque(Personaje, Personaje): int&lt;br/&gt;+ generarPersonajesAleatorios(): void&lt;br/&gt;- generarNombreAleatorio(): String&lt;br/&gt;+ ingresarPersonajesAMano(): void&lt;br/&gt;- salir(): void&lt;br/&gt;+ guardarLogsEnArchivo(): void&lt;br/&gt;+ validarInt(int, int, String): int&lt;br/&gt;- generarApodoAleatorio(): String&lt;br/&gt;+ asignarPersonajes(List&amp;lt;Personaje&amp;gt;): void&lt;br/&gt;+ mostrarMenu(): void&lt;br/&gt;+ numAleatorio(int, int): int&lt;br/&gt;+ iniciarPartida(): void&lt;br/&gt;+ leerDatosPersonaje(): Personaje&lt;br/&gt;+ enfrentamiento(): String&lt;br/&gt;+ cantDiasMes(int, int): int&lt;br/&gt;+ borrarArchivoLogs(): void&lt;br/&gt;+ leerLogs(): void&lt;/p&gt;" style="verticalAlign=top;align=left;overflow=fill;fontSize=14;fontFamily=Helvetica;html=1;rounded=0;shadow=0;comic=0;labelBackgroundColor=none;strokeWidth=1;">
      <mxGeometry x="492" y="27" width="304" height="643" as="geometry" />
    </mxCell>
    <mxCell id="node5" parent="1" vertex="1" value="&lt;p style=&quot;margin:0px;margin-top:4px;text-align:center;&quot;&gt;&lt;i&gt;&amp;lt;&amp;lt;enumeration&amp;gt;&amp;gt;&lt;/i&gt;&lt;br/&gt;&lt;b&gt;Nombre&lt;/b&gt;&lt;/p&gt;&lt;hr size=&quot;1&quot;/&gt;&lt;p style=&quot;margin:0 0 0 4px;line-height:1.6;&quot;&gt;+ Nombre(): &lt;/p&gt;&lt;hr size=&quot;1&quot;/&gt;&lt;p style=&quot;margin:0 0 0 4px;line-height:1.6;&quot;&gt;+ MarÃ­a: &lt;br/&gt;+ Carolina: &lt;br/&gt;+ Delfina: &lt;br/&gt;+ Lucas: &lt;br/&gt;+ Pablo: &lt;br/&gt;+ Horacio: &lt;br/&gt;+ Juan: &lt;br/&gt;+ Carla: &lt;br/&gt;+ Josefa: &lt;br/&gt;+ Fernando: &lt;/p&gt;&lt;hr size=&quot;1&quot;/&gt;&lt;p style=&quot;margin:0 0 0 4px;line-height:1.6;&quot;&gt;+ valueOf(String): Nombre&lt;br/&gt;+ values(): Nombre[]&lt;/p&gt;" style="verticalAlign=top;align=left;overflow=fill;fontSize=14;fontFamily=Helvetica;html=1;rounded=0;shadow=0;comic=0;labelBackgroundColor=none;strokeWidth=1;">
      <mxGeometry x="-195" y="171" width="197" height="355" as="geometry" />
    </mxCell>
    <mxCell id="node0" parent="1" vertex="1" value="&lt;p style=&quot;margin:0px;margin-top:4px;text-align:center;&quot;&gt;&lt;b&gt;Personaje&lt;/b&gt;&lt;/p&gt;&lt;hr size=&quot;1&quot;/&gt;&lt;p style=&quot;margin:0 0 0 4px;line-height:1.6;&quot;&gt;+ Personaje(String, Raza, String, LocalDate, int, int, int, int, int): &lt;/p&gt;&lt;hr size=&quot;1&quot;/&gt;&lt;p style=&quot;margin:0 0 0 4px;line-height:1.6;&quot;&gt;- fuerza: int&lt;br/&gt;- velocidad: int&lt;br/&gt;- edad: long&lt;br/&gt;- raza: Raza&lt;br/&gt;- nivel: int&lt;br/&gt;- armadura: int&lt;br/&gt;- destreza: int&lt;br/&gt;- nacimiento: LocalDate&lt;br/&gt;- apodo: String&lt;br/&gt;- nombre: String&lt;br/&gt;- salud: int&lt;/p&gt;&lt;hr size=&quot;1&quot;/&gt;&lt;p style=&quot;margin:0 0 0 4px;line-height:1.6;&quot;&gt;+ getArmadura(): int&lt;br/&gt;+ getNivel(): int&lt;br/&gt;+ getNombre(): String&lt;br/&gt;+ getFuerza(): int&lt;br/&gt;+ toString(): String&lt;br/&gt;+ getRaza(): Raza&lt;br/&gt;+ getSalud(): int&lt;br/&gt;+ estaVivo(): boolean&lt;br/&gt;+ getVelocidad(): int&lt;br/&gt;+ getDestreza(): int&lt;br/&gt;+ setSalud(int): void&lt;/p&gt;" style="verticalAlign=top;align=left;overflow=fill;fontSize=14;fontFamily=Helvetica;html=1;rounded=0;shadow=0;comic=0;labelBackgroundColor=none;strokeWidth=1;">
      <mxGeometry x="861" y="51" width="387" height="595" as="geometry" />
    </mxCell>
    <mxCell id="node2" parent="1" vertex="1" value="&lt;p style=&quot;margin:0px;margin-top:4px;text-align:center;&quot;&gt;&lt;b&gt;RandomEnumGenerator&lt;T&gt;&lt;/b&gt;&lt;/p&gt;&lt;hr size=&quot;1&quot;/&gt;&lt;p style=&quot;margin:0 0 0 4px;line-height:1.6;&quot;&gt;+ RandomEnumGenerator(Class&amp;lt;T&amp;gt;): &lt;/p&gt;&lt;hr size=&quot;1&quot;/&gt;&lt;p style=&quot;margin:0 0 0 4px;line-height:1.6;&quot;&gt;- values: T[]&lt;br/&gt;- PRNG: Random&lt;/p&gt;&lt;hr size=&quot;1&quot;/&gt;&lt;p style=&quot;margin:0 0 0 4px;line-height:1.6;&quot;&gt;+ randomEnum(): T&lt;/p&gt;" style="verticalAlign=top;align=left;overflow=fill;fontSize=14;fontFamily=Helvetica;html=1;rounded=0;shadow=0;comic=0;labelBackgroundColor=none;strokeWidth=1;">
      <mxGeometry x="1278" y="279" width="270" height="150" as="geometry" />
    </mxCell>
    <mxCell id="node4" parent="1" vertex="1" value="&lt;p style=&quot;margin:0px;margin-top:4px;text-align:center;&quot;&gt;&lt;i&gt;&amp;lt;&amp;lt;enumeration&amp;gt;&amp;gt;&lt;/i&gt;&lt;br/&gt;&lt;b&gt;Raza&lt;/b&gt;&lt;/p&gt;&lt;hr size=&quot;1&quot;/&gt;&lt;p style=&quot;margin:0 0 0 4px;line-height:1.6;&quot;&gt;+ Raza(): &lt;/p&gt;&lt;hr size=&quot;1&quot;/&gt;&lt;p style=&quot;margin:0 0 0 4px;line-height:1.6;&quot;&gt;+ ORCO: &lt;br/&gt;+ ELFO: &lt;br/&gt;+ HUMANO: &lt;/p&gt;&lt;hr size=&quot;1&quot;/&gt;&lt;p style=&quot;margin:0 0 0 4px;line-height:1.6;&quot;&gt;+ values(): Raza[]&lt;br/&gt;+ valueOf(String): Raza&lt;/p&gt;" style="verticalAlign=top;align=left;overflow=fill;fontSize=14;fontFamily=Helvetica;html=1;rounded=0;shadow=0;comic=0;labelBackgroundColor=none;strokeWidth=1;">
      <mxGeometry x="32" y="255" width="176" height="187" as="geometry" />
    </mxCell>
    <mxCell id="edge5" edge="1" value="" parent="1" source="node3" target="node1" style="html=1;rounded=1;edgeStyle=orthogonalEdgeStyle;dashed=1;startArrow=none;endArrow=openThin;endSize=12;strokeColor=#595959;exitX=0.000;exitY=0.250;exitDx=0;exitDy=0;entryX=1.000;entryY=0.500;entryDx=0;entryDy=0;">
      <mxGeometry width="50" height="50" relative="1" as="geometry">
        <Array as="points">
          <mxPoint x="456" y="188" />
          <mxPoint x="456" y="349" />
        </Array>
      </mxGeometry>
    </mxCell>
    <mxCell id="edge2" edge="1" value="" parent="1" source="node3" target="node3" style="html=1;rounded=1;edgeStyle=orthogonalEdgeStyle;dashed=1;startArrow=none;endArrow=openThin;endSize=12;strokeColor=#595959;exitX=0.000;exitY=0.750;exitDx=0;exitDy=0;entryX=0.167;entryY=1.000;entryDx=0;entryDy=0;">
      <mxGeometry width="50" height="50" relative="1" as="geometry">
        <Array as="points">
          <mxPoint x="481" y="509" />
          <mxPoint x="481" y="686" />
          <mxPoint x="542" y="686" />
        </Array>
      </mxGeometry>
    </mxCell>
    <mxCell id="edge4" edge="1" value="" parent="1" source="node3" target="node5" style="html=1;rounded=1;edgeStyle=orthogonalEdgeStyle;dashed=1;startArrow=none;endArrow=openThin;endSize=12;strokeColor=#595959;exitX=0.500;exitY=1.000;exitDx=0;exitDy=0;entryX=0.500;entryY=1.000;entryDx=0;entryDy=0;">
      <mxGeometry width="50" height="50" relative="1" as="geometry">
        <Array as="points">
          <mxPoint x="644" y="696" />
          <mxPoint x="-96" y="696" />
        </Array>
      </mxGeometry>
    </mxCell>
    <mxCell id="edge1" edge="1" value="" parent="1" source="node3" target="node0" style="html=1;rounded=1;edgeStyle=orthogonalEdgeStyle;dashed=0;startArrow=diamondThinstartSize=12;endArrow=openThin;endSize=12;strokeColor=#595959;exitX=1.000;exitY=0.750;exitDx=0;exitDy=0;entryX=0.000;entryY=0.750;entryDx=0;entryDy=0;">
      <mxGeometry width="50" height="50" relative="1" as="geometry">
        <Array as="points">
          <mxPoint x="821" y="509" />
          <mxPoint x="821" y="497" />
        </Array>
      </mxGeometry>
    </mxCell>
    <mxCell id="label6" parent="edge1" vertex="1" connectable="0" value="1" style="edgeLabel;resizable=0;html=1;align=left;verticalAlign=top;strokeColor=default;">
      <mxGeometry x="802" y="489" as="geometry" />
    </mxCell>
    <mxCell id="label10" parent="edge1" vertex="1" connectable="0" value="*" style="edgeLabel;resizable=0;html=1;align=left;verticalAlign=top;strokeColor=default;">
      <mxGeometry x="847" y="477" as="geometry" />
    </mxCell>
    <mxCell id="label11" parent="edge1" vertex="1" connectable="0" value="Jugador1" style="edgeLabel;resizable=0;html=1;align=left;verticalAlign=top;strokeColor=default;">
      <mxGeometry x="793" y="509" as="geometry" />
    </mxCell>
    <mxCell id="edge3" edge="1" value="" parent="1" source="node3" target="node0" style="html=1;rounded=1;edgeStyle=orthogonalEdgeStyle;dashed=1;startArrow=none;endArrow=openThin;endSize=12;strokeColor=#595959;exitX=1.000;exitY=0.250;exitDx=0;exitDy=0;entryX=0.000;entryY=0.250;entryDx=0;entryDy=0;">
      <mxGeometry width="50" height="50" relative="1" as="geometry">
        <Array as="points">
          <mxPoint x="831" y="188" />
          <mxPoint x="831" y="200" />
        </Array>
      </mxGeometry>
    </mxCell>
    <mxCell id="label20" parent="edge3" vertex="1" connectable="0" value="Â«createÂ»" style="edgeLabel;resizable=0;html=1;align=left;verticalAlign=top;strokeColor=default;">
      <mxGeometry x="805" y="180" as="geometry" />
    </mxCell>
    <mxCell id="edge7" edge="1" value="" parent="1" source="node3" target="node2" style="html=1;rounded=1;edgeStyle=orthogonalEdgeStyle;dashed=1;startArrow=none;endArrow=openThin;endSize=12;strokeColor=#595959;exitX=0.833;exitY=1.000;exitDx=0;exitDy=0;entryX=0.500;entryY=1.000;entryDx=0;entryDy=0;">
      <mxGeometry width="50" height="50" relative="1" as="geometry">
        <Array as="points">
          <mxPoint x="745" y="680" />
          <mxPoint x="1413" y="680" />
        </Array>
      </mxGeometry>
    </mxCell>
    <mxCell id="label44" parent="edge7" vertex="1" connectable="0" value="Â«createÂ»" style="edgeLabel;resizable=0;html=1;align=left;verticalAlign=top;strokeColor=default;">
      <mxGeometry x="1053" y="660" as="geometry" />
    </mxCell>
    <mxCell id="edge0" edge="1" value="" parent="1" source="node3" target="node4" style="html=1;rounded=1;edgeStyle=orthogonalEdgeStyle;dashed=1;startArrow=none;endArrow=openThin;endSize=12;strokeColor=#595959;exitX=0.500;exitY=0.000;exitDx=0;exitDy=0;entryX=0.750;entryY=0.000;entryDx=0;entryDy=0;">
      <mxGeometry width="50" height="50" relative="1" as="geometry">
        <Array as="points">
          <mxPoint x="644" y="17" />
          <mxPoint x="164" y="17" />
        </Array>
      </mxGeometry>
    </mxCell>
    <mxCell id="edge6" edge="1" value="" parent="1" source="node0" target="node4" style="html=1;rounded=1;edgeStyle=orthogonalEdgeStyle;dashed=0;startArrow=diamondThinstartSize=12;endArrow=openThin;endSize=12;strokeColor=#595959;exitX=0.500;exitY=0.000;exitDx=0;exitDy=0;entryX=0.250;entryY=0.000;entryDx=0;entryDy=0;">
      <mxGeometry width="50" height="50" relative="1" as="geometry">
        <Array as="points">
          <mxPoint x="1054" y="7" />
          <mxPoint x="76" y="7" />
        </Array>
      </mxGeometry>
    </mxCell>
    <mxCell id="label36" parent="edge6" vertex="1" connectable="0" value="1" style="edgeLabel;resizable=0;html=1;align=left;verticalAlign=top;strokeColor=default;">
      <mxGeometry x="1043" y="19" as="geometry" />
    </mxCell>
    <mxCell id="label40" parent="edge6" vertex="1" connectable="0" value="1" style="edgeLabel;resizable=0;html=1;align=left;verticalAlign=top;strokeColor=default;">
      <mxGeometry x="65" y="220" as="geometry" />
    </mxCell>
    <mxCell id="label41" parent="edge6" vertex="1" connectable="0" value="raza" style="edgeLabel;resizable=0;html=1;align=left;verticalAlign=top;strokeColor=default;">
      <mxGeometry x="76" y="220" as="geometry" />
    </mxCell>
  </root>
</mxGraphModel>